<svg width="40" height="40" viewBox="0 0 40 40" fill="none" xmlns="http://www.w3.org/2000/svg">
  <rect width="40" height="40" rx="8" fill="#EF4444"/>
  <path d="M20 8C16.13 8 13 11.13 13 15C13 20.25 20 32 20 32C20 32 27 20.25 27 15C27 11.13 23.87 8 20 8ZM20 18C18.34 18 17 16.66 17 15C17 13.34 18.34 12 20 12C21.66 12 23 13.34 23 15C23 16.66 21.66 18 20 18Z" fill="white"/>
  <path d="M10 24H30V28C30 29.1 29.1 30 28 30H12C10.9 30 10 29.1 10 28V24Z" fill="white"/>
  <path d="M30 22H10V24H30V22Z" fill="white"/>
  <path d="M28 22H12C10.9 22 10 22.9 10 24V28C10 29.1 10.9 30 12 30H28C29.1 30 30 29.1 30 28V24C30 22.9 29.1 22 28 22ZM14 28H12V26H14V28ZM28 28H26V26H28V28ZM22 28H18V26H22V28Z" fill="#EF4444"/>
</svg>
